<svg width="1200" height="300" viewBox="0 0 1200 400" xmlns="http://www.w3.org/2000/svg">
  <!-- Background -->
  <rect width="100%" height="100%" fill="#191810" />

  <!-- Base line -->
  <line x1="20" y1="150" x2="1020" y2="150" stroke="#454238" stroke-width="1" />

  <!-- Settings -->
  <!-- Let's set 4 arcs, so 5 dots -->
  <g stroke="#ffffff" stroke-dasharray="4,4" fill="none" stroke-width="1.5">
    <!-- Arc 1 -->
    <path d="M 20 150 A 100 100 0 0 1 270 150" />
    <!-- Arc 2 -->
    <path d="M 270 150 A 100 100 0 0 1 520 150" />
    <!-- Arc 3 -->
    <path d="M 520 150 A 100 100 0 0 1 770 150" />
    <!-- Arc 4 -->
    <path d="M 770 150 A 100 100 0 0 1 1020 150" />
  </g>

  <!-- Vertical lines aligned with dots -->
  <g stroke="#454238" stroke-width="1">
    <line x1="20" y1="-50" x2="20" y2="150"  />
    <line x1="270" y1="-50" x2="270" y2="150" />
    <line x1="520" y1="-50" x2="520" y2="150" />
    <line x1="770" y1="-50" x2="770" y2="150" />
    <line x1="1020" y1="-50" x2="1020" y2="150" />
  </g>

<!-- Circles at the top of vertical lines -->
  <g fill="#191810" stroke="#454238" stroke-width="1">
    <circle cx="20" cy="-50" r="5" />
    <circle cx="270" cy="-50" r="5" />
    <circle cx="520" cy="-50" r="5" />
    <circle cx="770" cy="-50" r="5" />
    <circle cx="1020" cy="-50" r="5" />
  </g>

  <!-- Orange dots -->
  <g fill="#ff6f61">
    <circle cx="20" cy="150" r="4" />
    <circle cx="270" cy="150" r="4" />
    <circle cx="520" cy="150" r="4" />
    <circle cx="770" cy="150" r="4" />
    <circle cx="1020" cy="150" r="4" />
  </g>
</svg>
